<?xml version="1.0" encoding="utf-8"?>
<!-- Generator: Adobe Illustrator 26.0.2, SVG Export Plug-In . SVG Version: 6.00 Build 0)  -->
<svg version="1.1" id="레이어_2" xmlns="http://www.w3.org/2000/svg" xmlns:xlink="http://www.w3.org/1999/xlink" x="0px"
	 y="0px" viewBox="0 0 1800 1800" style="enable-background:new 0 0 1800 1800;" xml:space="preserve">
<style type="text/css">
	.st0{fill:#DAA8AB;}
</style>
<g>
	<polygon class="st0" points="1056.3,0 900,900 743.7,0 1056.3,0 	"/>
</g>
<g>
	<polygon class="st0" points="441.2,110.1 900,900 201.8,311 441.2,110.1 	"/>
</g>
<g>
	<polygon class="st0" points="40.8,589.8 900,900 -13.5,897.6 40.8,589.8 	"/>
</g>
<g>
	<polygon class="st0" points="42.4,1214.7 900,900 198.7,1485.3 42.4,1214.7 	"/>
</g>
<g>
	<polygon class="st0" points="445.3,1692.3 900,900 739,1799.2 445.3,1692.3 	"/>
</g>
<g>
	<polygon class="st0" points="1061,1799.2 900,900 1354.7,1692.3 1061,1799.2 	"/>
</g>
<g>
	<polygon class="st0" points="1601.3,1485.3 900,900 1757.6,1214.7 1601.3,1485.3 	"/>
</g>
<g>
	<polygon class="st0" points="1813.5,897.6 900,900 1759.2,589.8 1813.5,897.6 	"/>
</g>
<g>
	<polygon class="st0" points="1598.2,311 900,900 1358.8,110.1 1598.2,311 	"/>
</g>
</svg>
