<?xml version="1.0" encoding="utf-8"?>
<!-- Generator: Adobe Illustrator 26.0.2, SVG Export Plug-In . SVG Version: 6.00 Build 0)  -->
<svg version="1.1" xmlns="http://www.w3.org/2000/svg" xmlns:xlink="http://www.w3.org/1999/xlink" x="0px" y="0px"
	 viewBox="0 0 1800 1800" style="enable-background:new 0 0 1800 1800;" xml:space="preserve">
<style type="text/css">
	.st0{fill:#E4AEB3;}
	.st1{fill:#FFFFFF;}
	.st2{fill:#DFABAF;}
	.st3{fill:#E4AEB3;stroke:#DFABAF;stroke-width:3;stroke-miterlimit:10;}
	.st4{fill:none;stroke:#DFABAF;stroke-width:3;stroke-miterlimit:10;}
</style>
<g id="레이어_1">
	<rect y="0" class="st0" width="100" height="1800"/>
	<rect x="100" y="0" class="st1" width="100" height="1800"/>
	<rect x="200" y="0" class="st2" width="100" height="1800"/>
	<rect x="300" y="0" class="st1" width="100" height="1800"/>
	<rect x="400" y="0" class="st2" width="100" height="1800"/>
	<rect x="500" y="0" class="st1" width="100" height="1800"/>
	<rect x="600" y="0" class="st2" width="100" height="1800"/>
	<rect x="700" y="0" class="st1" width="100" height="1800"/>
	<rect x="800" y="0" class="st2" width="100" height="1800"/>
	<rect x="900" y="0" class="st1" width="100" height="1800"/>
	<rect x="1000" y="0" class="st2" width="100" height="1800"/>
	<rect x="1100" y="0" class="st1" width="100" height="1800"/>
	<rect x="1200" y="0" class="st2" width="100" height="1800"/>
	<rect x="1300" y="0" class="st1" width="100" height="1800"/>
	<rect x="1400" y="0" class="st2" width="100" height="1800"/>
	<rect x="1500" y="0" class="st1" width="100" height="1800"/>
	<rect x="1600" y="0" class="st2" width="100" height="1800"/>
	<rect x="1700" y="0" class="st1" width="100" height="1800"/>
</g>
<g id="레이어_2">
	<line class="st3" x1="100" y1="0" x2="117.3" y2="1800"/>
	<line class="st4" x1="99.6" y1="0" x2="187.4" y2="1800"/>
	<line class="st3" x1="300" y1="0" x2="317.3" y2="1800"/>
	<line class="st4" x1="299.6" y1="0" x2="387.4" y2="1800"/>
	<line class="st3" x1="500" y1="0" x2="517.3" y2="1800"/>
	<line class="st4" x1="499.6" y1="0" x2="587.4" y2="1800"/>
	<line class="st3" x1="700" y1="0" x2="717.3" y2="1800"/>
	<line class="st4" x1="699.6" y1="0" x2="787.4" y2="1800"/>
	<line class="st3" x1="900" y1="0" x2="917.3" y2="1800"/>
	<line class="st4" x1="899.6" y1="0" x2="987.4" y2="1800"/>
	<line class="st3" x1="1100" y1="0" x2="1117.3" y2="1800"/>
	<line class="st4" x1="1099.6" y1="0" x2="1187.4" y2="1800"/>
	<line class="st3" x1="1300" y1="0" x2="1317.3" y2="1800"/>
	<line class="st4" x1="1299.6" y1="0" x2="1387.4" y2="1800"/>
	<line class="st3" x1="1500" y1="0" x2="1517.3" y2="1800"/>
	<line class="st4" x1="1499.6" y1="0" x2="1587.4" y2="1800"/>
	<line class="st3" x1="1700" y1="0" x2="1717.3" y2="1800"/>
	<line class="st4" x1="1699.6" y1="0" x2="1787.4" y2="1800"/>
</g>
</svg>
