<?xml version="1.0" encoding="utf-8"?>
<!-- Generator: Adobe Illustrator 26.0.2, SVG Export Plug-In . SVG Version: 6.00 Build 0)  -->
<svg version="1.1" xmlns="http://www.w3.org/2000/svg" xmlns:xlink="http://www.w3.org/1999/xlink" x="0px" y="0px"
	 viewBox="0 0 1800 1800" style="enable-background:new 0 0 1800 1800;" xml:space="preserve">
<style type="text/css">
	.st0{fill:#E4AEB3;}
	.st1{fill:#FFFFFF;}
	.st2{fill:#DFABAF;}
	.st3{fill:none;stroke:#DFABAF;stroke-width:3;stroke-miterlimit:10;}
</style>
<g id="레이어_1">
	<g id="레이어_1_00000173142624462085758240000001757397613458821566_">
		<rect class="st0" width="100" height="1800"/>
		<rect x="100" class="st1" width="100" height="1800"/>
		<rect x="200" class="st2" width="100" height="1800"/>
		<rect x="300" class="st1" width="100" height="1800"/>
		<rect x="400" class="st2" width="100" height="1800"/>
		<rect x="500" class="st1" width="100" height="1800"/>
		<rect x="600" class="st2" width="100" height="1800"/>
		<rect x="700" class="st1" width="100" height="1800"/>
		<rect x="800" class="st2" width="100" height="1800"/>
		<rect x="900" class="st1" width="100" height="1800"/>
		<rect x="1000" class="st2" width="100" height="1800"/>
		<rect x="1100" class="st1" width="100" height="1800"/>
		<rect x="1200" class="st2" width="100" height="1800"/>
		<rect x="1300" class="st1" width="100" height="1800"/>
		<rect x="1400" class="st2" width="100" height="1800"/>
		<rect x="1500" class="st1" width="100" height="1800"/>
		<rect x="1600" class="st2" width="100" height="1800"/>
		<rect x="1700" class="st1" width="100" height="1800"/>
	</g>
</g>
<g id="레이어_2">
	<line class="st3" x1="200" y1="0" x2="116.3" y2="1800"/>
	<line class="st3" x1="199.3" y1="0" x2="185.3" y2="1800"/>
	<line class="st3" x1="400" y1="0" x2="316.3" y2="1800"/>
	<line class="st3" x1="399.3" y1="0" x2="385.3" y2="1800"/>
	<line class="st3" x1="600" y1="0" x2="516.3" y2="1800"/>
	<line class="st3" x1="599.3" y1="0" x2="585.3" y2="1800"/>
	<line class="st3" x1="800" y1="0" x2="716.3" y2="1800"/>
	<line class="st3" x1="799.3" y1="0" x2="785.3" y2="1800"/>
	<line class="st3" x1="1000" y1="0" x2="916.3" y2="1800"/>
	<line class="st3" x1="999.3" y1="0" x2="985.3" y2="1800"/>
	<line class="st3" x1="1200" y1="0" x2="1116.3" y2="1800"/>
	<line class="st3" x1="1199.3" y1="0" x2="1185.3" y2="1800"/>
	<line class="st3" x1="1400" y1="0" x2="1316.3" y2="1800"/>
	<line class="st3" x1="1399.3" y1="0" x2="1385.3" y2="1800"/>
	<line class="st3" x1="1600" y1="0" x2="1516.3" y2="1800"/>
	<line class="st3" x1="1599.3" y1="0" x2="1585.3" y2="1800"/>
	<line class="st3" x1="1800" y1="0" x2="1716.3" y2="1800"/>
	<line class="st3" x1="1799.3" y1="0" x2="1785.3" y2="1800"/>
</g>
</svg>
